name D:\school\WTK\thesis\model\3dpredictsim\Results\Batchsim_tmt_linear_v2\Pog_s1_tmt_aCst_d00_k1000_ig24_pas.mot
datacolumns 128
datarows 4
range 1.08671433 1.11931576
endheader
time	pelvis_tilt	pelvis_list	pelvis_rotation	pelvis_tx	pelvis_ty	pelvis_tz	hip_flexion_l	hip_adduction_l	hip_rotation_l	hip_flexion_r	hip_adduction_r	hip_rotation_r	knee_angle_l	knee_angle_r	ankle_angle_l	ankle_angle_r	subtalar_angle_l	subtalar_angle_r	tmt_angle_l	tmt_angle_r	mtp_angle_l	mtp_angle_r	lumbar_extension	lumbar_bending	lumbar_rotation	arm_flex_l	arm_add_l	arm_rot_l	arm_flex_r	arm_add_r	arm_rot_r	elbow_flex_l	elbow_flex_r	pro_sup_l	pro_sup_r	glut_med1_l/activation	glut_med2_l/activation	glut_med3_l/activation	glut_min1_l/activation	glut_min2_l/activation	glut_min3_l/activation	semimem_l/activation	semiten_l/activation	bifemlh_l/activation	bifemsh_l/activation	sar_l/activation	add_long_l/activation	add_brev_l/activation	add_mag1_l/activation	add_mag2_l/activation	add_mag3_l/activation	tfl_l/activation	pect_l/activation	grac_l/activation	glut_max1_l/activation	glut_max2_l/activation	glut_max3_l/activation	iliacus_l/activation	psoas_l/activation	quad_fem_l/activation	gem_l/activation	peri_l/activation	rect_fem_l/activation	vas_med_l/activation	vas_int_l/activation	vas_lat_l/activation	med_gas_l/activation	lat_gas_l/activation	soleus_l/activation	tib_post_l/activation	flex_dig_l/activation	flex_hal_l/activation	tib_ant_l/activation	per_brev_l/activation	per_long_l/activation	per_tert_l/activation	ext_dig_l/activation	ext_hal_l/activation	ercspn_l/activation	intobl_l/activation	extobl_l/activation	glut_med1_r/activation	glut_med2_r/activation	glut_med3_r/activation	glut_min1_r/activation	glut_min2_r/activation	glut_min3_r/activation	semimem_r/activation	semiten_r/activation	bifemlh_r/activation	bifemsh_r/activation	sar_r/activation	add_long_r/activation	add_brev_r/activation	add_mag1_r/activation	add_mag2_r/activation	add_mag3_r/activation	tfl_r/activation	pect_r/activation	grac_r/activation	glut_max1_r/activation	glut_max2_r/activation	glut_max3_r/activation	iliacus_r/activation	psoas_r/activation	quad_fem_r/activation	gem_r/activation	peri_r/activation	rect_fem_r/activation	vas_med_r/activation	vas_int_r/activation	vas_lat_r/activation	med_gas_r/activation	lat_gas_r/activation	soleus_r/activation	tib_post_r/activation	flex_dig_r/activation	flex_hal_r/activation	tib_ant_r/activation	per_brev_r/activation	per_long_r/activation	per_tert_r/activation	ext_dig_r/activation	ext_hal_r/activation	ercspn_r/activation	intobl_r/activation	extobl_r/activation	
          1.08671433	         -2.91315564	          0.87383123	          5.07797824	          1.35839291	          0.87144519	         -0.00243888	        -17.81743982	          1.14727036	          6.79905319	         26.81355839	         -0.29250336	         -2.38226028	         -6.44857099	         -8.27725519	         -9.55802598	          5.72314841	          8.15290493	          3.03764752	          1.07458480	          0.03405852	         27.94567324	         -0.09889281	          0.37208074	         -3.02173550	         -1.71367254	          2.68422032	        -13.47461312	         10.41077429	        -10.29637068	        -13.45292211	          8.51975818	         30.38781837	         19.71485705	         86.51662706	         86.51662706	          0.27681848	          0.09298909	          0.06305126	          0.25691700	          0.15988872	          0.09328307	          0.05000258	          0.05000021	          0.05000019	          0.05000020	          0.09178279	          0.07888793	          0.05000026	          0.05000048	          0.05000153	          0.05000118	          0.22466075	          0.05000162	          0.05000050	          0.05000524	          0.05000287	          0.05000197	          0.32463669	          0.60612212	          0.05000027	          0.05000300	          0.05905586	          0.26274109	          0.08618663	          0.10392809	          0.05195985	          0.18799592	          0.27457764	          0.24155725	          0.21155661	          0.21757044	          0.27831909	          0.05000001	          0.09787565	          0.16774355	          0.05000015	          0.05000004	          0.05000013	          0.05000000	          0.05000003	          0.05000004	          0.06952194	          0.05910005	          0.05344192	          0.05000043	          0.05000077	          0.05517790	          0.06975195	          0.05905679	          0.06975269	          0.05000066	          0.05000045	          0.05000042	          0.05763552	          0.08234519	          0.14079013	          0.14641213	          0.05000150	          0.05000110	          0.05675002	          0.05905914	          0.13145103	          0.16470829	          0.05000006	          0.05000008	          0.07654377	          0.05905649	          0.05001838	          0.05000083	          0.05001898	          0.07141988	          0.05000332	          0.05905589	          0.05000176	          0.05002226	          0.05905583	          0.05905612	          0.05905606	          0.46949384	          0.31052767	          0.20275261	          0.17215020	          0.48311480	          0.25388686	          0.05000019	          0.13571957	          0.13574768	
          1.09758147	         -2.89331156	          0.91519349	          5.22608436	          1.37555902	          0.87009835	         -0.00226458	        -17.55321739	          1.00377006	          6.54576682	         26.33972449	         -0.12046208	         -2.14416587	         -8.72066453	         -8.15837356	        -10.31915693	          5.21483366	          9.33962713	          2.57517078	          0.96716695	          0.03424309	         28.67873208	         -0.07638569	          0.59776529	         -2.82444629	         -1.77703327	          2.39872501	        -13.50583421	         10.69772504	        -11.50357281	        -13.45024778	          8.27243132	         31.31238418	         19.73844470	         86.51662706	         86.51662706	          0.23436976	          0.07872968	          0.05338274	          0.21752010	          0.13537059	          0.07897860	          0.05000089	          0.05000013	          0.05000011	          0.05000019	          0.07770861	          0.14606885	          0.20400630	          0.05000863	          0.05000414	          0.05000034	          0.19021016	          0.12697540	          0.05905428	          0.05000152	          0.05000084	          0.05000086	          0.27485522	          0.53791991	          0.06975175	          0.05000128	          0.05000040	          0.22245101	          0.10826796	          0.13520513	          0.13574054	          0.15916764	          0.23247247	          0.20451561	          0.17911548	          0.18420737	          0.23564034	          0.05000001	          0.08286696	          0.14754735	          0.05000010	          0.05000003	          0.05000011	          0.05270340	          0.05658037	          0.05594256	          0.10032143	          0.05003759	          0.28855508	          0.05905611	          0.05905601	          0.05000222	          0.05905595	          0.05000080	          0.05905653	          0.05000032	          0.05000708	          0.09614884	          0.12003695	          0.21748810	          0.21356202	          0.18077543	          0.05000019	          0.07552141	          0.05000294	          0.05000282	          0.11129387	          0.21679203	          0.05905597	          0.05092936	          0.06480621	          0.05000085	          0.12154462	          0.06871759	          0.25073133	          0.25902697	          0.21273879	          0.05000001	          0.05000003	          0.05000001	          0.05000000	          0.05000023	          0.05000020	          0.64798284	          0.34889942	          0.17786004	          0.51994117	          0.58914595	          0.39907942	          0.05000006	          0.11490762	          0.11493141	
          1.10844861	         -2.86659553	          0.94177398	          5.34807147	          1.39296998	          0.86856930	         -0.00209168	        -17.18736344	          0.85733161	          6.28732027	         25.76344591	          0.04528466	         -1.86671416	        -11.19162794	         -8.61584309	        -11.02452819	          4.47831183	         10.49819886	          2.10777924	          0.81383302	          0.02909106	         28.90231302	         -0.03844615	          0.83998284	         -2.59800605	         -1.83115639	          2.05165682	        -13.54527130	         10.95054169	        -12.70616273	        -13.45834749	          8.09556669	         32.22394471	         19.73808736	         86.51662706	         86.51662706	          0.19843030	          0.06665688	          0.05905572	          0.18416453	          0.11461219	          0.06686766	          0.06305184	          0.05000016	          0.05000035	          0.05000004	          0.06579249	          0.18715640	          0.35920675	          0.19509415	          0.05930442	          0.14804661	          0.16104238	          0.10750459	          0.05000026	          0.05063118	          0.05905407	          0.05905619	          0.23270748	          0.46456733	          0.05905589	          0.05905569	          0.05000072	          0.18833920	          0.11493133	          0.11493186	          0.11493054	          0.13476004	          0.19682393	          0.17315411	          0.15164899	          0.15596016	          0.19950608	          0.05000010	          0.07015979	          0.13639626	          0.05000012	          0.11687110	          0.05000037	          0.05790707	          0.06975208	          0.05905672	          0.18776418	          0.07626762	          0.25037527	          0.05000020	          0.05000019	          0.05000049	          0.05000007	          0.05000012	          0.05000053	          0.05000003	          0.05000013	          0.08140494	          0.10162992	          0.23876164	          0.25571532	          0.17882883	          0.05000134	          0.06394105	          0.05000058	          0.14676916	          0.16291616	          0.20000697	          0.05000008	          0.05000010	          0.18925430	          0.05719689	          0.10290641	          0.06279930	          0.26913583	          0.28943629	          0.22093743	          0.05000005	          0.05000019	          0.05000001	          0.05212568	          0.05905658	          0.05905616	          0.54861779	          0.36234035	          0.18701951	          0.44021076	          0.50653322	          0.33788252	          0.05000000	          0.09728708	          0.09730723	
          1.11931576	         -2.83547421	          0.95418218	          5.44414631	          1.41042706	          0.86684062	         -0.00193446	        -16.71774141	          0.71583821	          6.02136175	         25.06181781	          0.18954145	         -1.55533970	        -13.84425025	         -9.39098191	        -11.56359199	          3.89962660	         11.58376797	          1.59964329	          0.61378653	         -0.00456874	         28.35824185	         -0.19097986	          1.08006929	         -2.34578714	         -1.87381536	          1.67637256	        -13.59027368	         11.17675670	        -13.86173650	        -13.48259698	          8.02623169	         33.11635404	         19.68183865	         86.51662706	         86.51662706	          0.18103438	          0.05643539	          0.05000003	          0.15592570	          0.09703701	          0.05661388	          0.08736329	          0.05000062	          0.05000042	          0.05000055	          0.05905718	          0.18836333	          0.33405402	          0.16517759	          0.05021152	          0.12534456	          0.13634739	          0.09102920	          0.05000924	          0.05000066	          0.05000047	          0.05000073	          0.19702292	          0.42337642	          0.05000009	          0.05000030	          0.05000011	          0.15945828	          0.09730717	          0.09730762	          0.09730650	          0.11409522	          0.16664192	          0.14660175	          0.12839437	          0.13204453	          0.16891286	          0.08028235	          0.12224309	          0.11548823	          0.09438451	          0.20714222	          0.08119383	          0.08283462	          0.05905593	          0.05000070	          0.29729975	          0.28150080	          0.42342827	          0.24643376	          0.17688619	          0.26076130	          0.06975246	          0.08868826	          0.07514197	          0.06975237	          0.05001189	          0.06892194	          0.08604549	          0.20214876	          0.21650282	          0.18369787	          0.05000027	          0.05904169	          0.07494735	          0.21312975	          0.20378737	          0.20038897	          0.05000090	          0.05000035	          0.16023311	          0.05000206	          0.23849100	          0.05316934	          0.22786517	          0.24505265	          0.18705776	          0.05000011	          0.05000017	          0.05000003	          0.05000000	          0.05000062	          0.05000030	          0.61349662	          0.30677726	          0.15834098	          0.67538564	          0.61647239	          0.39949712	          0.05000007	          0.08236859	          0.08238562	
